<svg xmlns="http://www.w3.org/2000/svg" width="24" height="24" viewBox="190 200 374 361" preserveAspectRatio="xMidYMid meet">
  <g transform="translate(160.685226,618.645672) scale(0.057839,-0.057839)" fill="#000000" stroke="none">
    <path d="M3699 7202 c-134 -86 -219 -280 -205 -467 11 -134 6 -131 94 -45 145 141 272 195 462 195 136 0 214 -20 353 -92 246 -127 401 -325 500 -638 36 -116 42 -180 23 -256 -44 -169 -148 -252 -461 -364 -155 -56 -355 -133 -372 -143 -9 -6 -10 -21 -5 -52 7 -42 10 -45 47 -51 120 -20 127 -180 9 -219 -30 -10 -41 -9 -75 8 l-40 20 1 -171 c1 -99 -2 -173 -8 -175 -7 -2 -127 60 -141 74 -3 2 10 19 28 38 43 45 47 90 9 118 -14 12 -71 31 -125 43 l-98 22 3 34 c6 63 33 179 51 222 10 24 33 56 50 72 l31 30 -23 18 c-12 10 -87 63 -167 119 -171 120 -260 207 -315 306 -22 39 -43 72 -46 72 -3 0 -11 -22 -18 -48 -24 -97 -155 -258 -239 -296 -23 -10 -42 -23 -42 -27 0 -28 268 -173 470 -254 l125 -50 -3 -38 c-2 -20 -9 -58 -15 -85 -12 -46 -13 -47 -47 -44 -19 2 -36 5 -38 7 -2 1 5 18 14 38 20 41 14 77 -16 95 -40 25 -186 36 -303 22 -60 -6 -123 -16 -140 -21 -17 -5 -32 -7 -34 -5 -2 2 3 16 12 32 35 68 8 94 -98 94 -100 0 -223 -26 -350 -75 -15 -6 -16 -4 -7 20 21 54 8 136 -24 157 -76 51 -396 -153 -538 -342 l-27 -35 -7 32 c-8 40 -27 57 -53 48 -24 -7 -113 -139 -137 -202 l-17 -43 -78 75 c-85 81 -113 94 -159 75 -40 -17 -67 -57 -97 -143 -47 -139 -41 -283 18 -401 24 -48 29 -72 29 -128 0 -68 0 -69 -33 -83 -17 -7 -49 -16 -70 -20 -21 -4 -41 -13 -43 -20 -8 -20 31 -90 60 -109 l26 -16 -100 -98 c-90 -88 -100 -102 -100 -134 0 -39 11 -53 53 -63 32 -8 32 -4 8 -80 -26 -83 -34 -181 -18 -225 11 -32 16 -35 50 -34 20 1 37 -2 37 -5 0 -4 -29 -23 -64 -43 -49 -29 -81 -39 -143 -47 -44 -6 -92 -15 -107 -22 -26 -12 -35 -42 -16 -54 18 -11 11 -22 -21 -35 -17 -7 -44 -30 -61 -52 -21 -25 -40 -38 -55 -38 -35 0 -94 -27 -127 -58 -29 -28 -86 -135 -86 -162 0 -9 -21 -33 -46 -54 -109 -91 -130 -264 -45 -372 14 -18 18 -34 14 -58 -7 -48 21 -127 60 -164 17 -17 53 -40 79 -51 26 -11 51 -29 57 -39 19 -36 108 -72 177 -72 98 0 141 30 114 79 -9 18 -7 21 17 27 16 3 51 15 80 26 47 18 58 19 130 8 79 -12 224 -7 283 10 28 8 30 7 30 -21 0 -22 5 -29 19 -29 37 0 107 31 139 63 28 27 35 30 53 19 28 -18 96 14 152 72 l44 46 30 -43 c65 -90 155 -167 195 -167 10 0 20 10 24 24 l6 25 51 -40 c28 -23 82 -56 119 -75 l69 -35 -33 -44 c-18 -25 -62 -91 -98 -146 -62 -97 -67 -103 -117 -120 -107 -36 -152 -82 -178 -179 -8 -29 -21 -60 -30 -70 -21 -23 -45 -103 -45 -147 0 -42 25 -103 42 -103 7 0 33 13 58 30 l44 29 53 -54 c47 -48 53 -59 53 -95 0 -55 24 -100 53 -100 12 0 40 12 61 26 l39 27 66 -36 c36 -20 99 -47 139 -60 59 -20 78 -31 94 -57 18 -31 21 -32 61 -25 60 11 103 10 179 -6 87 -17 164 -3 273 49 130 63 242 163 318 285 23 39 42 54 98 82 90 44 153 88 179 125 13 18 49 43 94 64 41 18 94 53 120 79 l48 46 61 -10 c104 -17 248 18 336 81 43 32 67 73 126 215 37 88 40 121 20 182 -6 19 3 27 73 67 44 26 97 60 118 77 l38 30 55 -54 c128 -125 252 -201 383 -237 55 -15 60 -20 77 -80 28 -98 101 -180 161 -180 14 0 43 11 65 24 l40 24 33 -39 c40 -47 79 -69 122 -69 50 0 70 17 101 86 16 35 32 64 35 64 3 0 19 -11 36 -25 55 -46 64 -41 220 122 62 66 67 74 83 148 21 95 16 174 -19 274 -14 39 -34 119 -46 178 -28 137 -54 207 -86 230 -23 17 -24 21 -13 46 22 49 -24 91 -140 127 l-54 17 -28 109 c-16 60 -28 112 -29 115 0 3 30 -5 68 -17 91 -31 245 -50 278 -36 28 13 31 38 7 64 -25 28 -4 38 79 38 75 0 159 15 201 36 29 15 35 42 15 63 -11 11 -10 15 1 19 8 2 49 22 91 43 117 59 214 159 283 294 52 100 42 135 -35 135 -40 0 -40 0 -24 23 58 80 118 233 136 347 21 133 7 339 -28 410 -14 28 -23 35 -47 35 -24 0 -34 -7 -50 -37 -11 -21 -22 -38 -25 -38 -3 0 -11 33 -17 73 -21 131 -100 285 -190 368 -90 85 -216 156 -252 144 -24 -7 -41 -54 -41 -111 l0 -43 -35 24 c-105 71 -376 106 -452 59 -34 -21 -28 -55 17 -113 22 -28 40 -52 40 -53 0 -2 -30 -3 -67 -3 -122 0 -203 -37 -203 -92 0 -14 13 -47 29 -72 35 -55 86 -164 95 -205 l7 -28 -43 6 c-30 5 -49 2 -62 -7 -19 -14 -18 -17 18 -94 28 -58 50 -90 87 -122 38 -33 49 -49 49 -72 0 -63 -60 -132 -134 -154 -43 -13 -57 -13 -113 0 -35 8 -81 24 -103 35 -36 18 -38 22 -33 54 6 37 4 39 -72 52 -22 4 -76 28 -120 53 -44 26 -107 60 -139 76 l-60 30 57 6 c60 7 82 19 92 50 4 10 15 19 26 19 50 0 115 56 106 91 -4 15 2 32 19 51 31 38 36 85 9 101 -10 5 -12 22 -8 61 5 46 3 56 -18 74 -12 12 -34 22 -48 22 -15 0 -34 10 -47 27 -17 22 -29 27 -60 26 -22 -1 -57 -2 -79 -3 -31 -1 -48 -9 -76 -36 -35 -34 -35 -35 -54 -14 -12 13 -31 20 -56 20 -30 0 -39 4 -45 23 -4 12 -20 49 -35 81 -16 33 -29 63 -29 68 0 4 13 8 29 8 90 0 350 64 461 113 l55 25 -38 15 c-59 25 -150 119 -185 190 -63 128 -61 218 5 347 37 72 38 78 37 170 -2 85 -33 241 -79 385 -5 17 3 24 44 43 101 46 199 159 242 278 31 85 31 214 1 271 -43 82 -102 107 -233 101 -78 -4 -97 -8 -171 -45 -46 -23 -109 -65 -140 -93 l-57 -51 -84 40 c-120 59 -220 83 -347 83 -62 0 -135 -6 -178 -16 -40 -9 -75 -16 -77 -16 -2 0 -13 26 -25 58 -27 73 -84 149 -130 174 -54 28 -126 24 -181 -10z m1061 -2369 c138 -28 187 -63 197 -140 8 -63 -12 -118 -53 -144 l-36 -22 -37 37 c-93 91 -299 113 -516 55 -125 -33 -125 -33 -125 -16 0 17 -82 93 -118 110 -12 6 -21 15 -19 21 6 19 96 57 192 81 180 46 352 52 515 18z m-2042 -265 c7 -7 12 -20 12 -31 0 -13 5 -17 18 -13 49 14 79 15 101 3 39 -20 43 -50 16 -101 -16 -30 -20 -46 -12 -49 8 -2 7 -11 -4 -28 -12 -18 -42 -32 -125 -57 -113 -35 -232 -90 -318 -148 -35 -24 -62 -34 -88 -34 -66 0 -102 58 -75 121 16 40 64 99 79 99 6 0 36 25 67 56 66 66 120 105 216 156 75 40 94 45 113 26z m-1053 -71 c59 -36 231 -200 251 -239 23 -45 18 -93 -15 -130 l-29 -32 -58 30 c-141 72 -286 158 -304 182 -30 38 -28 124 5 166 61 78 61 78 150 23z m3264 -48 c113 -65 208 -192 332 -444 83 -169 104 -239 93 -315 -15 -104 -97 -217 -212 -293 -79 -53 -129 -71 -238 -88 -69 -10 -90 -10 -156 5 -137 31 -190 82 -276 268 -58 126 -176 338 -254 459 -37 58 -68 109 -68 112 0 4 6 7 14 7 20 0 46 39 46 69 0 24 2 23 46 -19 25 -25 66 -78 92 -118 45 -71 47 -73 55 -47 6 16 14 24 22 21 96 -37 270 19 372 120 57 57 84 123 64 156 -11 18 -4 138 8 138 3 0 30 -14 60 -31z m-2280 -272 c40 -80 6 -160 -78 -186 -74 -22 -161 20 -173 83 -10 50 34 79 46 31 4 -14 17 -32 31 -41 76 -50 152 53 110 149 -6 16 -4 18 16 15 17 -2 31 -17 48 -51z m-904 -65 c-7 -46 7 -87 42 -120 l26 -24 28 21 c16 12 41 30 57 41 52 37 200 50 314 25 75 -15 230 -84 265 -117 38 -35 48 -82 28 -133 -47 -124 -225 -198 -480 -199 -126 -1 -132 0 -185 29 -30 17 -65 46 -78 65 -21 31 -23 44 -20 112 2 60 8 83 25 106 l23 31 -30 6 c-16 4 -39 18 -50 32 -37 48 -19 163 26 163 13 0 14 -8 9 -38z"/>
    <path d="M5005 4174 c-11 -53 -39 -98 -95 -154 -93 -93 -229 -150 -360 -150 l-61 0 26 -42 c14 -24 48 -86 75 -139 89 -171 137 -209 262 -209 87 1 161 27 239 86 94 72 133 158 110 244 -13 48 -94 223 -154 329 -35 63 -36 64 -42 35z"/>
    <path d="M1915 3985 c-76 -28 -87 -80 -27 -137 39 -37 107 -78 131 -78 20 0 185 97 211 125 29 31 20 56 -28 80 -50 25 -229 32 -287 10z"/>
    <path d="M3877 6596 c-107 -44 -212 -130 -278 -227 -53 -78 -158 -295 -165 -340 -5 -27 1 -52 21 -98 40 -88 89 -130 330 -283 39 -25 92 -67 120 -96 l49 -51 25 18 c53 36 200 101 286 126 82 24 112 35 89 35 -5 0 -56 -14 -113 -30 -145 -42 -264 -39 -399 11 -118 43 -170 78 -219 145 -40 58 -49 107 -30 181 9 32 20 92 26 133 25 174 75 253 180 284 73 21 72 21 127 -20 53 -41 102 -64 136 -64 13 0 57 17 98 37 64 33 84 38 140 37 162 -1 294 -144 307 -333 6 -83 4 -87 -63 -127 -16 -9 -16 -13 9 -48 14 -22 23 -45 19 -55 -15 -40 -52 -76 -112 -107 -83 -44 -39 -34 58 13 123 59 182 132 182 226 0 69 -90 261 -177 377 -41 55 -169 160 -243 199 -153 82 -294 101 -403 57z"/>
    <path d="M2650 6545 c-19 -14 -47 -25 -63 -25 -31 0 -97 -56 -97 -83 0 -8 -16 -27 -35 -41 -36 -28 -61 -90 -50 -126 3 -10 1 -21 -5 -25 -14 -9 -12 -85 4 -114 10 -18 11 -32 4 -53 -13 -37 -5 -66 29 -111 16 -20 42 -56 59 -80 22 -30 53 -55 100 -79 82 -43 178 -78 214 -78 81 0 205 109 272 236 38 73 63 168 52 200 -14 43 -30 66 -55 79 -22 12 -27 23 -31 64 -3 34 -14 62 -36 92 -18 24 -32 48 -32 55 0 7 -14 24 -31 38 -23 20 -42 26 -76 26 -34 0 -53 6 -75 25 -21 18 -41 25 -72 25 -29 0 -52 -8 -76 -25z"/>
    <path d="M5583 6297 c-17 -7 -41 -24 -52 -39 -14 -17 -35 -29 -61 -33 -55 -9 -105 -58 -120 -116 -9 -37 -17 -46 -50 -60 -70 -30 -82 -72 -83 -274 -1 -156 121 -321 256 -346 40 -7 148 12 255 46 47 15 142 79 203 136 34 32 39 42 39 81 0 24 -4 48 -10 54 -6 6 0 28 17 63 15 29 29 77 31 107 4 46 1 60 -22 94 -14 22 -26 53 -26 68 0 16 -10 44 -23 63 -27 41 -110 99 -142 99 -12 0 -30 10 -41 21 -40 45 -108 59 -171 36z"/>
    <path d="M3748 6245 c-51 -28 -95 -157 -69 -201 9 -16 10 -12 11 24 0 55 20 103 55 130 43 34 48 26 14 -20 -28 -39 -30 -49 -27 -102 5 -65 22 -86 69 -86 47 0 81 38 86 97 12 115 -63 200 -139 158z"/>
    <path d="M4299 6205 c-53 -29 -85 -106 -69 -166 22 -81 115 -107 165 -47 23 28 26 38 23 87 -2 31 -8 64 -13 75 -7 16 -6 17 13 7 28 -15 62 -89 63 -137 0 -31 2 -35 9 -19 25 59 -8 162 -64 196 -36 22 -90 24 -127 4z"/>
    <path d="M3890 5905 c0 -52 49 -137 93 -162 12 -7 43 -12 69 -13 64 0 111 40 134 115 26 82 22 85 -152 85 l-144 0 0 -25z"/>
    <path d="M3872 5354 c-16 -11 -22 -25 -22 -55 0 -34 5 -42 33 -59 37 -24 72 -19 103 13 33 34 37 60 13 90 -16 22 -29 27 -63 27 -23 0 -52 -7 -64 -16z"/>
  </g>
</svg>